<?xml version="1.0" encoding="UTF-8" standalone="no"?>
<!DOCTYPE svg PUBLIC "-//W3C//DTD SVG 1.1//EN"
 "http://www.w3.org/Graphics/SVG/1.1/DTD/svg11.dtd">
<!-- Generated by graphviz version 2.38.0 (20140413.2041)
 -->
<!-- Title: Tree Pages: 1 -->
<svg width="673pt" height="477pt"
 viewBox="0.00 0.00 672.50 477.00" xmlns="http://www.w3.org/2000/svg" xmlns:xlink="http://www.w3.org/1999/xlink">
<g id="graph0" class="graph" transform="scale(1 1) rotate(0) translate(4 473)">
<title>Tree</title>
<polygon fill="white" stroke="none" points="-4,4 -4,-473 668.5,-473 668.5,4 -4,4"/>
<!-- 0 -->
<g id="node1" class="node"><title>0</title>
<path fill="#e58139" fill-opacity="0.054902" stroke="black" d="M369,-469C369,-469 232,-469 232,-469 226,-469 220,-463 220,-457 220,-457 220,-413 220,-413 220,-407 226,-401 232,-401 232,-401 369,-401 369,-401 375,-401 381,-407 381,-413 381,-413 381,-457 381,-457 381,-463 375,-469 369,-469"/>
<text text-anchor="middle" x="300.5" y="-453.8" font-family="Helvetica,sans-Serif" font-size="14.00">(&#39;공격&#39;, &#39;범실&#39;) &lt;= 267.0</text>
<text text-anchor="middle" x="300.5" y="-438.8" font-family="Helvetica,sans-Serif" font-size="14.00">gini = 0.5</text>
<text text-anchor="middle" x="300.5" y="-423.8" font-family="Helvetica,sans-Serif" font-size="14.00">samples = 35</text>
<text text-anchor="middle" x="300.5" y="-408.8" font-family="Helvetica,sans-Serif" font-size="14.00">value = [18, 17]</text>
</g>
<!-- 1 -->
<g id="node2" class="node"><title>1</title>
<path fill="skyblue" stroke="black" d="M276,-365C276,-365 127,-365 127,-365 121,-365 115,-359 115,-353 115,-353 115,-309 115,-309 115,-303 121,-297 127,-297 127,-297 276,-297 276,-297 282,-297 288,-303 288,-309 288,-309 288,-353 288,-353 288,-359 282,-365 276,-365"/>
<text text-anchor="middle" x="201.5" y="-349.8" font-family="Helvetica,sans-Serif" font-size="14.00">(&#39;리시브&#39;, &#39;범실&#39;) &lt;= 156.5</text>
<text text-anchor="middle" x="201.5" y="-334.8" font-family="Helvetica,sans-Serif" font-size="14.00">gini = 0.208</text>
<text text-anchor="middle" x="201.5" y="-319.8" font-family="Helvetica,sans-Serif" font-size="14.00">samples = 17</text>
<text text-anchor="middle" x="201.5" y="-304.8" font-family="Helvetica,sans-Serif" font-size="14.00">value = [15, 2]</text>
</g>
<!-- 0&#45;&gt;1 -->
<g id="edge1" class="edge"><title>0&#45;&gt;1</title>
<path fill="none" stroke="black" d="M268.358,-400.884C259.626,-391.887 250.069,-382.041 240.982,-372.678"/>
<polygon fill="black" stroke="black" points="243.296,-370.038 233.82,-365.299 238.273,-374.913 243.296,-370.038"/>
<text text-anchor="middle" x="233.447" y="-386.597" font-family="Helvetica,sans-Serif" font-size="14.00">True</text>
</g>
<!-- 6 -->
<g id="node7" class="node"><title>6</title>
<path fill="pink" stroke="black" d="M480.5,-365C480.5,-365 318.5,-365 318.5,-365 312.5,-365 306.5,-359 306.5,-353 306.5,-353 306.5,-309 306.5,-309 306.5,-303 312.5,-297 318.5,-297 318.5,-297 480.5,-297 480.5,-297 486.5,-297 492.5,-303 492.5,-309 492.5,-309 492.5,-353 492.5,-353 492.5,-359 486.5,-365 480.5,-365"/>
<text text-anchor="middle" x="399.5" y="-349.8" font-family="Helvetica,sans-Serif" font-size="14.00">(&#39;이동공격&#39;, &#39;시도&#39;) &lt;= 156.0</text>
<text text-anchor="middle" x="399.5" y="-334.8" font-family="Helvetica,sans-Serif" font-size="14.00">gini = 0.278</text>
<text text-anchor="middle" x="399.5" y="-319.8" font-family="Helvetica,sans-Serif" font-size="14.00">samples = 18</text>
<text text-anchor="middle" x="399.5" y="-304.8" font-family="Helvetica,sans-Serif" font-size="14.00">value = [3, 15]</text>
</g>
<!-- 0&#45;&gt;6 -->
<g id="edge6" class="edge"><title>0&#45;&gt;6</title>
<path fill="none" stroke="black" d="M332.642,-400.884C341.374,-391.887 350.931,-382.041 360.018,-372.678"/>
<polygon fill="black" stroke="black" points="362.727,-374.913 367.18,-365.299 357.704,-370.038 362.727,-374.913"/>
<text text-anchor="middle" x="367.553" y="-386.597" font-family="Helvetica,sans-Serif" font-size="14.00">False</text>
</g>
<!-- 2 -->
<g id="node3" class="node"><title>2</title>
<path fill="skyblue" stroke="black" d="M95,-253.5C95,-253.5 12,-253.5 12,-253.5 6,-253.5 0,-247.5 0,-241.5 0,-241.5 0,-212.5 0,-212.5 0,-206.5 6,-200.5 12,-200.5 12,-200.5 95,-200.5 95,-200.5 101,-200.5 107,-206.5 107,-212.5 107,-212.5 107,-241.5 107,-241.5 107,-247.5 101,-253.5 95,-253.5"/>
<text text-anchor="middle" x="53.5" y="-238.3" font-family="Helvetica,sans-Serif" font-size="14.00">gini = 0.0</text>
<text text-anchor="middle" x="53.5" y="-223.3" font-family="Helvetica,sans-Serif" font-size="14.00">samples = 14</text>
<text text-anchor="middle" x="53.5" y="-208.3" font-family="Helvetica,sans-Serif" font-size="14.00">value = [14, 0]</text>
</g>
<!-- 1&#45;&gt;2 -->
<g id="edge2" class="edge"><title>1&#45;&gt;2</title>
<path fill="none" stroke="black" d="M153.449,-296.884C135.895,-284.786 116.111,-271.151 98.805,-259.224"/>
<polygon fill="black" stroke="black" points="100.749,-256.313 90.5289,-253.52 96.7767,-262.077 100.749,-256.313"/>
</g>
<!-- 3 -->
<g id="node4" class="node"><title>3</title>
<path fill="pink" stroke="black" d="M286,-261C286,-261 137,-261 137,-261 131,-261 125,-255 125,-249 125,-249 125,-205 125,-205 125,-199 131,-193 137,-193 137,-193 286,-193 286,-193 292,-193 298,-199 298,-205 298,-205 298,-249 298,-249 298,-255 292,-261 286,-261"/>
<text text-anchor="middle" x="211.5" y="-245.8" font-family="Helvetica,sans-Serif" font-size="14.00">(&#39;득점&#39;, &#39;블로킹&#39;) &lt;= 229.5</text>
<text text-anchor="middle" x="211.5" y="-230.8" font-family="Helvetica,sans-Serif" font-size="14.00">gini = 0.444</text>
<text text-anchor="middle" x="211.5" y="-215.8" font-family="Helvetica,sans-Serif" font-size="14.00">samples = 3</text>
<text text-anchor="middle" x="211.5" y="-200.8" font-family="Helvetica,sans-Serif" font-size="14.00">value = [1, 2]</text>
</g>
<!-- 1&#45;&gt;3 -->
<g id="edge3" class="edge"><title>1&#45;&gt;3</title>
<path fill="none" stroke="black" d="M204.747,-296.884C205.541,-288.778 206.404,-279.982 207.238,-271.472"/>
<polygon fill="black" stroke="black" points="210.743,-271.593 208.235,-261.299 203.776,-270.91 210.743,-271.593"/>
</g>
<!-- 4 -->
<g id="node5" class="node"><title>4</title>
<path fill="skyblue" stroke="black" d="M170.5,-149.5C170.5,-149.5 94.5,-149.5 94.5,-149.5 88.5,-149.5 82.5,-143.5 82.5,-137.5 82.5,-137.5 82.5,-108.5 82.5,-108.5 82.5,-102.5 88.5,-96.5 94.5,-96.5 94.5,-96.5 170.5,-96.5 170.5,-96.5 176.5,-96.5 182.5,-102.5 182.5,-108.5 182.5,-108.5 182.5,-137.5 182.5,-137.5 182.5,-143.5 176.5,-149.5 170.5,-149.5"/>
<text text-anchor="middle" x="132.5" y="-134.3" font-family="Helvetica,sans-Serif" font-size="14.00">gini = 0.0</text>
<text text-anchor="middle" x="132.5" y="-119.3" font-family="Helvetica,sans-Serif" font-size="14.00">samples = 2</text>
<text text-anchor="middle" x="132.5" y="-104.3" font-family="Helvetica,sans-Serif" font-size="14.00">value = [0, 2]</text>
</g>
<!-- 3&#45;&gt;4 -->
<g id="edge4" class="edge"><title>3&#45;&gt;4</title>
<path fill="none" stroke="black" d="M185.851,-192.884C177.077,-181.556 167.26,-168.88 158.462,-157.521"/>
<polygon fill="black" stroke="black" points="161.156,-155.283 152.265,-149.52 155.622,-159.569 161.156,-155.283"/>
</g>
<!-- 5 -->
<g id="node6" class="node"><title>5</title>
<path fill="pink" stroke="black" d="M288.5,-149.5C288.5,-149.5 212.5,-149.5 212.5,-149.5 206.5,-149.5 200.5,-143.5 200.5,-137.5 200.5,-137.5 200.5,-108.5 200.5,-108.5 200.5,-102.5 206.5,-96.5 212.5,-96.5 212.5,-96.5 288.5,-96.5 288.5,-96.5 294.5,-96.5 300.5,-102.5 300.5,-108.5 300.5,-108.5 300.5,-137.5 300.5,-137.5 300.5,-143.5 294.5,-149.5 288.5,-149.5"/>
<text text-anchor="middle" x="250.5" y="-134.3" font-family="Helvetica,sans-Serif" font-size="14.00">gini = 0.0</text>
<text text-anchor="middle" x="250.5" y="-119.3" font-family="Helvetica,sans-Serif" font-size="14.00">samples = 1</text>
<text text-anchor="middle" x="250.5" y="-104.3" font-family="Helvetica,sans-Serif" font-size="14.00">value = [1, 0]</text>
</g>
<!-- 3&#45;&gt;5 -->
<g id="edge5" class="edge"><title>3&#45;&gt;5</title>
<path fill="none" stroke="black" d="M224.162,-192.884C228.283,-182.106 232.871,-170.108 237.047,-159.184"/>
<polygon fill="black" stroke="black" points="240.44,-160.11 240.742,-149.52 233.902,-157.61 240.44,-160.11"/>
</g>
<!-- 7 -->
<g id="node8" class="node"><title>7</title>
<path fill="skyblue" stroke="black" d="M431,-253.5C431,-253.5 348,-253.5 348,-253.5 342,-253.5 336,-247.5 336,-241.5 336,-241.5 336,-212.5 336,-212.5 336,-206.5 342,-200.5 348,-200.5 348,-200.5 431,-200.5 431,-200.5 437,-200.5 443,-206.5 443,-212.5 443,-212.5 443,-241.5 443,-241.5 443,-247.5 437,-253.5 431,-253.5"/>
<text text-anchor="middle" x="389.5" y="-238.3" font-family="Helvetica,sans-Serif" font-size="14.00">gini = 0.0</text>
<text text-anchor="middle" x="389.5" y="-223.3" font-family="Helvetica,sans-Serif" font-size="14.00">samples = 12</text>
<text text-anchor="middle" x="389.5" y="-208.3" font-family="Helvetica,sans-Serif" font-size="14.00">value = [0, 12]</text>
</g>
<!-- 6&#45;&gt;7 -->
<g id="edge7" class="edge"><title>6&#45;&gt;7</title>
<path fill="none" stroke="black" d="M396.253,-296.884C395.207,-286.216 394.044,-274.352 392.982,-263.519"/>
<polygon fill="black" stroke="black" points="396.461,-263.131 392.002,-253.52 389.494,-263.814 396.461,-263.131"/>
</g>
<!-- 8 -->
<g id="node9" class="node"><title>8</title>
<path fill="pink" stroke="black" d="M603.5,-261C603.5,-261 473.5,-261 473.5,-261 467.5,-261 461.5,-255 461.5,-249 461.5,-249 461.5,-205 461.5,-205 461.5,-199 467.5,-193 473.5,-193 473.5,-193 603.5,-193 603.5,-193 609.5,-193 615.5,-199 615.5,-205 615.5,-205 615.5,-249 615.5,-249 615.5,-255 609.5,-261 603.5,-261"/>
<text text-anchor="middle" x="538.5" y="-245.8" font-family="Helvetica,sans-Serif" font-size="14.00">(&#39;속공&#39;, &#39;범실&#39;) &lt;= 21.0</text>
<text text-anchor="middle" x="538.5" y="-230.8" font-family="Helvetica,sans-Serif" font-size="14.00">gini = 0.5</text>
<text text-anchor="middle" x="538.5" y="-215.8" font-family="Helvetica,sans-Serif" font-size="14.00">samples = 6</text>
<text text-anchor="middle" x="538.5" y="-200.8" font-family="Helvetica,sans-Serif" font-size="14.00">value = [3, 3]</text>
</g>
<!-- 6&#45;&gt;8 -->
<g id="edge8" class="edge"><title>6&#45;&gt;8</title>
<path fill="none" stroke="black" d="M444.629,-296.884C457.496,-287.442 471.639,-277.064 484.956,-267.292"/>
<polygon fill="black" stroke="black" points="487.13,-270.037 493.121,-261.299 482.989,-264.394 487.13,-270.037"/>
</g>
<!-- 9 -->
<g id="node10" class="node"><title>9</title>
<path fill="skyblue" stroke="black" d="M534,-157C534,-157 391,-157 391,-157 385,-157 379,-151 379,-145 379,-145 379,-101 379,-101 379,-95 385,-89 391,-89 391,-89 534,-89 534,-89 540,-89 546,-95 546,-101 546,-101 546,-145 546,-145 546,-151 540,-157 534,-157"/>
<text text-anchor="middle" x="462.5" y="-141.8" font-family="Helvetica,sans-Serif" font-size="14.00">(&#39;블로킹&#39;, &#39;범실&#39;) &lt;= 47.0</text>
<text text-anchor="middle" x="462.5" y="-126.8" font-family="Helvetica,sans-Serif" font-size="14.00">gini = 0.375</text>
<text text-anchor="middle" x="462.5" y="-111.8" font-family="Helvetica,sans-Serif" font-size="14.00">samples = 4</text>
<text text-anchor="middle" x="462.5" y="-96.8" font-family="Helvetica,sans-Serif" font-size="14.00">value = [3, 1]</text>
</g>
<!-- 8&#45;&gt;9 -->
<g id="edge9" class="edge"><title>8&#45;&gt;9</title>
<path fill="none" stroke="black" d="M513.825,-192.884C507.321,-184.154 500.22,-174.625 493.432,-165.514"/>
<polygon fill="black" stroke="black" points="496.093,-163.227 487.311,-157.299 490.48,-167.409 496.093,-163.227"/>
</g>
<!-- 12 -->
<g id="node13" class="node"><title>12</title>
<path fill="pink" stroke="black" d="M652.5,-149.5C652.5,-149.5 576.5,-149.5 576.5,-149.5 570.5,-149.5 564.5,-143.5 564.5,-137.5 564.5,-137.5 564.5,-108.5 564.5,-108.5 564.5,-102.5 570.5,-96.5 576.5,-96.5 576.5,-96.5 652.5,-96.5 652.5,-96.5 658.5,-96.5 664.5,-102.5 664.5,-108.5 664.5,-108.5 664.5,-137.5 664.5,-137.5 664.5,-143.5 658.5,-149.5 652.5,-149.5"/>
<text text-anchor="middle" x="614.5" y="-134.3" font-family="Helvetica,sans-Serif" font-size="14.00">gini = 0.0</text>
<text text-anchor="middle" x="614.5" y="-119.3" font-family="Helvetica,sans-Serif" font-size="14.00">samples = 2</text>
<text text-anchor="middle" x="614.5" y="-104.3" font-family="Helvetica,sans-Serif" font-size="14.00">value = [0, 2]</text>
</g>
<!-- 8&#45;&gt;12 -->
<g id="edge12" class="edge"><title>8&#45;&gt;12</title>
<path fill="none" stroke="black" d="M563.175,-192.884C571.533,-181.666 580.877,-169.126 589.277,-157.852"/>
<polygon fill="black" stroke="black" points="592.317,-159.63 595.485,-149.52 586.704,-155.448 592.317,-159.63"/>
</g>
<!-- 10 -->
<g id="node11" class="node"><title>10</title>
<path fill="skyblue" stroke="black" d="M441.5,-53C441.5,-53 365.5,-53 365.5,-53 359.5,-53 353.5,-47 353.5,-41 353.5,-41 353.5,-12 353.5,-12 353.5,-6 359.5,-0 365.5,-0 365.5,-0 441.5,-0 441.5,-0 447.5,-0 453.5,-6 453.5,-12 453.5,-12 453.5,-41 453.5,-41 453.5,-47 447.5,-53 441.5,-53"/>
<text text-anchor="middle" x="403.5" y="-37.8" font-family="Helvetica,sans-Serif" font-size="14.00">gini = 0.0</text>
<text text-anchor="middle" x="403.5" y="-22.8" font-family="Helvetica,sans-Serif" font-size="14.00">samples = 3</text>
<text text-anchor="middle" x="403.5" y="-7.8" font-family="Helvetica,sans-Serif" font-size="14.00">value = [3, 0]</text>
</g>
<!-- 9&#45;&gt;10 -->
<g id="edge10" class="edge"><title>9&#45;&gt;10</title>
<path fill="none" stroke="black" d="M441.865,-88.9485C436.382,-80.1664 430.448,-70.6629 424.924,-61.815"/>
<polygon fill="black" stroke="black" points="427.833,-59.8656 419.568,-53.2367 421.896,-63.5728 427.833,-59.8656"/>
</g>
<!-- 11 -->
<g id="node12" class="node"><title>11</title>
<path fill="pink" stroke="black" d="M559.5,-53C559.5,-53 483.5,-53 483.5,-53 477.5,-53 471.5,-47 471.5,-41 471.5,-41 471.5,-12 471.5,-12 471.5,-6 477.5,-0 483.5,-0 483.5,-0 559.5,-0 559.5,-0 565.5,-0 571.5,-6 571.5,-12 571.5,-12 571.5,-41 571.5,-41 571.5,-47 565.5,-53 559.5,-53"/>
<text text-anchor="middle" x="521.5" y="-37.8" font-family="Helvetica,sans-Serif" font-size="14.00">gini = 0.0</text>
<text text-anchor="middle" x="521.5" y="-22.8" font-family="Helvetica,sans-Serif" font-size="14.00">samples = 1</text>
<text text-anchor="middle" x="521.5" y="-7.8" font-family="Helvetica,sans-Serif" font-size="14.00">value = [0, 1]</text>
</g>
<!-- 9&#45;&gt;11 -->
<g id="edge11" class="edge"><title>9&#45;&gt;11</title>
<path fill="none" stroke="black" d="M483.135,-88.9485C488.618,-80.1664 494.552,-70.6629 500.076,-61.815"/>
<polygon fill="black" stroke="black" points="503.104,-63.5728 505.432,-53.2367 497.167,-59.8656 503.104,-63.5728"/>
</g>
</g>
</svg>
