<?xml version="1.0" encoding="UTF-8" standalone="no"?>
<!DOCTYPE svg PUBLIC "-//W3C//DTD SVG 1.1//EN"
 "http://www.w3.org/Graphics/SVG/1.1/DTD/svg11.dtd">
<!-- Generated by graphviz version 2.38.0 (20140413.2041)
 -->
<!-- Title: Tree Pages: 1 -->
<svg width="749pt" height="373pt"
 viewBox="0.00 0.00 749.00 373.00" xmlns="http://www.w3.org/2000/svg" xmlns:xlink="http://www.w3.org/1999/xlink">
<g id="graph0" class="graph" transform="scale(1 1) rotate(0) translate(4 369)">
<title>Tree</title>
<polygon fill="white" stroke="none" points="-4,4 -4,-369 745,-369 745,4 -4,4"/>
<!-- 0 -->
<g id="node1" class="node"><title>0</title>
<path fill="#8139e5" fill-opacity="0.172549" stroke="black" d="M356.5,-365C356.5,-365 207.5,-365 207.5,-365 201.5,-365 195.5,-359 195.5,-353 195.5,-353 195.5,-309 195.5,-309 195.5,-303 201.5,-297 207.5,-297 207.5,-297 356.5,-297 356.5,-297 362.5,-297 368.5,-303 368.5,-309 368.5,-309 368.5,-353 368.5,-353 368.5,-359 362.5,-365 356.5,-365"/>
<text text-anchor="middle" x="282" y="-349.8" font-family="Helvetica,sans-Serif" font-size="14.00">(&#39;공격&#39;, &#39;성공률&#39;) &lt;= 51.03</text>
<text text-anchor="middle" x="282" y="-334.8" font-family="Helvetica,sans-Serif" font-size="14.00">gini = 0.519</text>
<text text-anchor="middle" x="282" y="-319.8" font-family="Helvetica,sans-Serif" font-size="14.00">samples = 41</text>
<text text-anchor="middle" x="282" y="-304.8" font-family="Helvetica,sans-Serif" font-size="14.00">value = [18, 1, 22]</text>
</g>
<!-- 1 -->
<g id="node2" class="node"><title>1</title>
<path fill="skyblue" stroke="black" d="M269.5,-261C269.5,-261 126.5,-261 126.5,-261 120.5,-261 114.5,-255 114.5,-249 114.5,-249 114.5,-205 114.5,-205 114.5,-199 120.5,-193 126.5,-193 126.5,-193 269.5,-193 269.5,-193 275.5,-193 281.5,-199 281.5,-205 281.5,-205 281.5,-249 281.5,-249 281.5,-255 275.5,-261 269.5,-261"/>
<text text-anchor="middle" x="198" y="-245.8" font-family="Helvetica,sans-Serif" font-size="14.00">(&#39;득점&#39;, &#39;득점&#39;) &lt;= 3325.5</text>
<text text-anchor="middle" x="198" y="-230.8" font-family="Helvetica,sans-Serif" font-size="14.00">gini = 0.091</text>
<text text-anchor="middle" x="198" y="-215.8" font-family="Helvetica,sans-Serif" font-size="14.00">samples = 21</text>
<text text-anchor="middle" x="198" y="-200.8" font-family="Helvetica,sans-Serif" font-size="14.00">value = [1, 0, 20]</text>
</g>
<!-- 0&#45;&gt;1 -->
<g id="edge1" class="edge"><title>0&#45;&gt;1</title>
<path fill="none" stroke="black" d="M254.728,-296.884C247.465,-288.065 239.531,-278.43 231.958,-269.235"/>
<polygon fill="black" stroke="black" points="234.482,-266.794 225.423,-261.299 229.078,-271.244 234.482,-266.794"/>
<text text-anchor="middle" x="223.015" y="-282.483" font-family="Helvetica,sans-Serif" font-size="14.00">True</text>
</g>
<!-- 4 -->
<g id="node5" class="node"><title>4</title>
<path fill="pink" stroke="black" d="M416,-261C416,-261 318,-261 318,-261 312,-261 306,-255 306,-249 306,-249 306,-205 306,-205 306,-199 312,-193 318,-193 318,-193 416,-193 416,-193 422,-193 428,-199 428,-205 428,-205 428,-249 428,-249 428,-255 422,-261 416,-261"/>
<text text-anchor="middle" x="367" y="-245.8" font-family="Helvetica,sans-Serif" font-size="14.00">최다연패 &lt;= 6.5</text>
<text text-anchor="middle" x="367" y="-230.8" font-family="Helvetica,sans-Serif" font-size="14.00">gini = 0.265</text>
<text text-anchor="middle" x="367" y="-215.8" font-family="Helvetica,sans-Serif" font-size="14.00">samples = 20</text>
<text text-anchor="middle" x="367" y="-200.8" font-family="Helvetica,sans-Serif" font-size="14.00">value = [17, 1, 2]</text>
</g>
<!-- 0&#45;&gt;4 -->
<g id="edge4" class="edge"><title>0&#45;&gt;4</title>
<path fill="none" stroke="black" d="M309.597,-296.884C316.946,-288.065 324.975,-278.43 332.637,-269.235"/>
<polygon fill="black" stroke="black" points="335.537,-271.222 339.251,-261.299 330.16,-266.741 335.537,-271.222"/>
<text text-anchor="middle" x="341.514" y="-282.497" font-family="Helvetica,sans-Serif" font-size="14.00">False</text>
</g>
<!-- 2 -->
<g id="node3" class="node"><title>2</title>
<path fill="skyblue" stroke="black" d="M110,-149.5C110,-149.5 12,-149.5 12,-149.5 6,-149.5 7.10543e-015,-143.5 7.10543e-015,-137.5 7.10543e-015,-137.5 7.10543e-015,-108.5 7.10543e-015,-108.5 7.10543e-015,-102.5 6,-96.5 12,-96.5 12,-96.5 110,-96.5 110,-96.5 116,-96.5 122,-102.5 122,-108.5 122,-108.5 122,-137.5 122,-137.5 122,-143.5 116,-149.5 110,-149.5"/>
<text text-anchor="middle" x="61" y="-134.3" font-family="Helvetica,sans-Serif" font-size="14.00">gini = 0.0</text>
<text text-anchor="middle" x="61" y="-119.3" font-family="Helvetica,sans-Serif" font-size="14.00">samples = 20</text>
<text text-anchor="middle" x="61" y="-104.3" font-family="Helvetica,sans-Serif" font-size="14.00">value = [0, 0, 20]</text>
</g>
<!-- 1&#45;&gt;2 -->
<g id="edge2" class="edge"><title>1&#45;&gt;2</title>
<path fill="none" stroke="black" d="M153.52,-192.884C137.419,-180.896 119.291,-167.399 103.375,-155.549"/>
<polygon fill="black" stroke="black" points="105.388,-152.684 95.2768,-149.52 101.208,-158.299 105.388,-152.684"/>
</g>
<!-- 3 -->
<g id="node4" class="node"><title>3</title>
<path fill="pink" stroke="black" d="M244,-149.5C244,-149.5 152,-149.5 152,-149.5 146,-149.5 140,-143.5 140,-137.5 140,-137.5 140,-108.5 140,-108.5 140,-102.5 146,-96.5 152,-96.5 152,-96.5 244,-96.5 244,-96.5 250,-96.5 256,-102.5 256,-108.5 256,-108.5 256,-137.5 256,-137.5 256,-143.5 250,-149.5 244,-149.5"/>
<text text-anchor="middle" x="198" y="-134.3" font-family="Helvetica,sans-Serif" font-size="14.00">gini = 0.0</text>
<text text-anchor="middle" x="198" y="-119.3" font-family="Helvetica,sans-Serif" font-size="14.00">samples = 1</text>
<text text-anchor="middle" x="198" y="-104.3" font-family="Helvetica,sans-Serif" font-size="14.00">value = [1, 0, 0]</text>
</g>
<!-- 1&#45;&gt;3 -->
<g id="edge3" class="edge"><title>1&#45;&gt;3</title>
<path fill="none" stroke="black" d="M198,-192.884C198,-182.326 198,-170.597 198,-159.854"/>
<polygon fill="black" stroke="black" points="201.5,-159.52 198,-149.52 194.5,-159.52 201.5,-159.52"/>
</g>
<!-- 5 -->
<g id="node6" class="node"><title>5</title>
<path fill="skyblue" stroke="black" d="M448,-157C448,-157 286,-157 286,-157 280,-157 274,-151 274,-145 274,-145 274,-101 274,-101 274,-95 280,-89 286,-89 286,-89 448,-89 448,-89 454,-89 460,-95 460,-101 460,-101 460,-145 460,-145 460,-151 454,-157 448,-157"/>
<text text-anchor="middle" x="367" y="-141.8" font-family="Helvetica,sans-Serif" font-size="14.00">(&#39;공격&#39;, &#39;공격차단&#39;) &lt;= 343.5</text>
<text text-anchor="middle" x="367" y="-126.8" font-family="Helvetica,sans-Serif" font-size="14.00">gini = 0.105</text>
<text text-anchor="middle" x="367" y="-111.8" font-family="Helvetica,sans-Serif" font-size="14.00">samples = 18</text>
<text text-anchor="middle" x="367" y="-96.8" font-family="Helvetica,sans-Serif" font-size="14.00">value = [17, 0, 1]</text>
</g>
<!-- 4&#45;&gt;5 -->
<g id="edge5" class="edge"><title>4&#45;&gt;5</title>
<path fill="none" stroke="black" d="M367,-192.884C367,-184.778 367,-175.982 367,-167.472"/>
<polygon fill="black" stroke="black" points="370.5,-167.299 367,-157.299 363.5,-167.299 370.5,-167.299"/>
</g>
<!-- 8 -->
<g id="node9" class="node"><title>8</title>
<path fill="pink" stroke="black" d="M639.5,-157C639.5,-157 490.5,-157 490.5,-157 484.5,-157 478.5,-151 478.5,-145 478.5,-145 478.5,-101 478.5,-101 478.5,-95 484.5,-89 490.5,-89 490.5,-89 639.5,-89 639.5,-89 645.5,-89 651.5,-95 651.5,-101 651.5,-101 651.5,-145 651.5,-145 651.5,-151 645.5,-157 639.5,-157"/>
<text text-anchor="middle" x="565" y="-141.8" font-family="Helvetica,sans-Serif" font-size="14.00">(&#39;이동공격&#39;, &#39;범실&#39;) &lt;= 1.5</text>
<text text-anchor="middle" x="565" y="-126.8" font-family="Helvetica,sans-Serif" font-size="14.00">gini = 0.5</text>
<text text-anchor="middle" x="565" y="-111.8" font-family="Helvetica,sans-Serif" font-size="14.00">samples = 2</text>
<text text-anchor="middle" x="565" y="-96.8" font-family="Helvetica,sans-Serif" font-size="14.00">value = [0, 1, 1]</text>
</g>
<!-- 4&#45;&gt;8 -->
<g id="edge8" class="edge"><title>4&#45;&gt;8</title>
<path fill="none" stroke="black" d="M428.022,-194.564C448.115,-184.213 470.668,-172.595 491.585,-161.82"/>
<polygon fill="black" stroke="black" points="493.463,-164.789 500.75,-157.098 490.258,-158.567 493.463,-164.789"/>
</g>
<!-- 6 -->
<g id="node7" class="node"><title>6</title>
<path fill="skyblue" stroke="black" d="M295,-53C295,-53 197,-53 197,-53 191,-53 185,-47 185,-41 185,-41 185,-12 185,-12 185,-6 191,-0 197,-0 197,-0 295,-0 295,-0 301,-0 307,-6 307,-12 307,-12 307,-41 307,-41 307,-47 301,-53 295,-53"/>
<text text-anchor="middle" x="246" y="-37.8" font-family="Helvetica,sans-Serif" font-size="14.00">gini = 0.0</text>
<text text-anchor="middle" x="246" y="-22.8" font-family="Helvetica,sans-Serif" font-size="14.00">samples = 17</text>
<text text-anchor="middle" x="246" y="-7.8" font-family="Helvetica,sans-Serif" font-size="14.00">value = [17, 0, 0]</text>
</g>
<!-- 5&#45;&gt;6 -->
<g id="edge6" class="edge"><title>5&#45;&gt;6</title>
<path fill="none" stroke="black" d="M324.68,-88.9485C312.498,-79.4346 299.232,-69.074 287.124,-59.6175"/>
<polygon fill="black" stroke="black" points="288.989,-56.6335 278.954,-53.2367 284.681,-62.1504 288.989,-56.6335"/>
</g>
<!-- 7 -->
<g id="node8" class="node"><title>7</title>
<path fill="pink" stroke="black" d="M429,-53C429,-53 337,-53 337,-53 331,-53 325,-47 325,-41 325,-41 325,-12 325,-12 325,-6 331,-0 337,-0 337,-0 429,-0 429,-0 435,-0 441,-6 441,-12 441,-12 441,-41 441,-41 441,-47 435,-53 429,-53"/>
<text text-anchor="middle" x="383" y="-37.8" font-family="Helvetica,sans-Serif" font-size="14.00">gini = 0.0</text>
<text text-anchor="middle" x="383" y="-22.8" font-family="Helvetica,sans-Serif" font-size="14.00">samples = 1</text>
<text text-anchor="middle" x="383" y="-7.8" font-family="Helvetica,sans-Serif" font-size="14.00">value = [0, 0, 1]</text>
</g>
<!-- 5&#45;&gt;7 -->
<g id="edge7" class="edge"><title>5&#45;&gt;7</title>
<path fill="none" stroke="black" d="M372.596,-88.9485C374.005,-80.6238 375.525,-71.6509 376.955,-63.2027"/>
<polygon fill="black" stroke="black" points="380.424,-63.6807 378.642,-53.2367 373.522,-62.5121 380.424,-63.6807"/>
</g>
<!-- 9 -->
<g id="node10" class="node"><title>9</title>
<path fill="skyblue" stroke="black" d="M595,-53C595,-53 503,-53 503,-53 497,-53 491,-47 491,-41 491,-41 491,-12 491,-12 491,-6 497,-0 503,-0 503,-0 595,-0 595,-0 601,-0 607,-6 607,-12 607,-12 607,-41 607,-41 607,-47 601,-53 595,-53"/>
<text text-anchor="middle" x="549" y="-37.8" font-family="Helvetica,sans-Serif" font-size="14.00">gini = 0.0</text>
<text text-anchor="middle" x="549" y="-22.8" font-family="Helvetica,sans-Serif" font-size="14.00">samples = 1</text>
<text text-anchor="middle" x="549" y="-7.8" font-family="Helvetica,sans-Serif" font-size="14.00">value = [0, 1, 0]</text>
</g>
<!-- 8&#45;&gt;9 -->
<g id="edge9" class="edge"><title>8&#45;&gt;9</title>
<path fill="none" stroke="black" d="M559.404,-88.9485C557.995,-80.6238 556.475,-71.6509 555.045,-63.2027"/>
<polygon fill="black" stroke="black" points="558.478,-62.5121 553.358,-53.2367 551.576,-63.6807 558.478,-62.5121"/>
</g>
<!-- 10 -->
<g id="node11" class="node"><title>10</title>
<path fill="pink" stroke="black" d="M729,-53C729,-53 637,-53 637,-53 631,-53 625,-47 625,-41 625,-41 625,-12 625,-12 625,-6 631,-0 637,-0 637,-0 729,-0 729,-0 735,-0 741,-6 741,-12 741,-12 741,-41 741,-41 741,-47 735,-53 729,-53"/>
<text text-anchor="middle" x="683" y="-37.8" font-family="Helvetica,sans-Serif" font-size="14.00">gini = 0.0</text>
<text text-anchor="middle" x="683" y="-22.8" font-family="Helvetica,sans-Serif" font-size="14.00">samples = 1</text>
<text text-anchor="middle" x="683" y="-7.8" font-family="Helvetica,sans-Serif" font-size="14.00">value = [0, 0, 1]</text>
</g>
<!-- 8&#45;&gt;10 -->
<g id="edge10" class="edge"><title>8&#45;&gt;10</title>
<path fill="none" stroke="black" d="M606.271,-88.9485C618.15,-79.4346 631.088,-69.074 642.896,-59.6175"/>
<polygon fill="black" stroke="black" points="645.246,-62.2196 650.863,-53.2367 640.87,-56.7558 645.246,-62.2196"/>
</g>
</g>
</svg>
